<?xml version="1.0" encoding="UTF-8" standalone="no"?>
<svg width="20px" height="20px" viewBox="0 0 20 20" version="1.1" xmlns="http://www.w3.org/2000/svg" xmlns:xlink="http://www.w3.org/1999/xlink">
    <!-- Generator: Sketch 3.8.3 (29802) - http://www.bohemiancoding.com/sketch -->
    <title>rametta-admin-icon</title>
    <desc>Created with Sketch.</desc>
    <defs></defs>
    <g id="Page-1" stroke="none" stroke-width="1" fill="none" fill-rule="evenodd">
        <g id="rametta-admin-icon" fill="#D8D8D8">
            <g id="Group" transform="translate(1.000000, 1.000000)">
                <path d="M0,2.20715332 C0,0.988176201 0.993397683,0 2.20715332,0 L15.7928467,0 C17.0118238,0 18,0.993397683 18,2.20715332 L18,15.7928467 C18,17.0118238 17.0066023,18 15.7928467,18 L2.20715332,18 C0.988176201,18 0,17.0066023 0,15.7928467 L0,2.20715332 Z M10.7739759,9.68443373 C10.9442322,9.89725408 11.1597095,10.1765766 11.4204145,10.5224096 C11.6811194,10.8682427 11.949801,11.2513136 12.2264675,11.6716337 C12.5031339,12.0919539 12.777136,12.5308893 13.0484819,12.988453 C13.3198279,13.4460167 13.5512665,13.8876123 13.7428048,14.313253 L12.0508916,14.313253 C11.8380712,13.9088944 11.6066326,13.4992214 11.3565687,13.0842217 C11.1065048,12.669222 10.8537844,12.2728501 10.5984,11.895094 C10.3430156,11.5173379 10.0902952,11.1635294 9.84023133,10.8336578 C9.59016742,10.5037863 9.3640492,10.2164832 9.16186988,9.97173976 C9.02353666,9.98238078 8.8825453,9.9877012 8.73889157,9.9877012 L8.29995181,9.9877012 L6.91130602,9.9877012 L6.91130602,14.313253 L5.36304578,14.313253 L5.36304578,3.41158554 C5.79932748,3.30517537 6.28614671,3.23334958 6.82351807,3.19610602 C7.36088943,3.15886246 7.85302909,3.14024096 8.29995181,3.14024096 C9.8535403,3.14024096 11.0373357,3.43286454 11.8513735,4.01812048 C12.6654113,4.60337642 13.0724241,5.47592673 13.0724241,6.63579759 C13.0724241,7.37002777 12.8782284,7.99783836 12.4898313,8.51924819 C12.1014342,9.04065803 11.5294881,9.42904933 10.7739759,9.68443373 Z M8.42764337,4.49696386 C7.76790032,4.49696386 7.26245959,4.51292514 6.91130602,4.54484819 L6.91130602,8.71078554 L8.01264578,8.71078554 C8.54469664,8.71078554 9.02353522,8.6841834 9.4491759,8.63097831 C9.87481659,8.57777323 10.2339455,8.47668508 10.5265735,8.32771084 C10.8192015,8.1787366 11.0453197,7.96857967 11.2049349,7.69723373 C11.3645502,7.4258878 11.4443566,7.06675886 11.4443566,6.61983614 C11.4443566,6.20483648 11.3645502,5.85900861 11.2049349,5.58234217 C11.0453197,5.30567573 10.8298423,5.08753815 10.5584964,4.92792289 C10.2871505,4.76830764 9.96792473,4.65657863 9.60080964,4.59273253 C9.23369455,4.52888643 8.84264304,4.49696386 8.42764337,4.49696386 Z" id="Combined-Shape"></path>
            </g>
        </g>
    </g>
</svg>